<svg width="39" height="39" viewBox="0 0 39 39" fill="none" xmlns="http://www.w3.org/2000/svg">
<rect x="0.5" y="0.5" width="38" height="38" rx="9.5" stroke="#333333"/>
<path d="M19 11.9004C19.4907 11.9004 19.9004 12.2749 19.9004 12.75V18.6504H26.2002C26.6908 18.6505 27.0996 19.025 27.0996 19.5C27.0996 19.9751 26.6907 20.3495 26.2002 20.3496H19.9004V26.25C19.9003 26.7252 19.4906 27.0996 19 27.0996C18.5095 27.0996 18.0997 26.7252 18.0996 26.25V20.3496H11.7998C11.3093 20.3495 10.9004 19.9752 10.9004 19.5C10.9004 19.0249 11.3093 18.6505 11.7998 18.6504H18.0996V12.75C18.0996 12.2749 18.5094 11.9004 19 11.9004Z" fill="#333333" stroke="#333333" stroke-width="0.2"/>
</svg>
