<svg width="19" height="20" viewBox="0 0 19 20" fill="none" xmlns="http://www.w3.org/2000/svg">
<path fill-rule="evenodd" clip-rule="evenodd" d="M17.7104 5.83155L11.4341 1.14225C10.2879 0.285915 8.71206 0.285915 7.56588 1.14225L1.28957 5.83155C0.243663 6.613 -0.224868 7.94639 0.103472 9.20703L2.15795 17.0952C2.52676 18.5113 3.80966 19.5 5.27818 19.5H13.7218C15.1903 19.5 16.4733 18.5113 16.842 17.0952L18.8965 9.20703C19.2249 7.94639 18.7563 6.613 17.7104 5.83155ZM8.15697 13.131V10.9366H5.95421C5.83552 10.9366 5.73931 10.8408 5.73931 10.7225V8.47465C5.73931 8.35637 5.83552 8.26056 5.95421 8.26056H8.15697V6.0662C8.15697 5.94796 8.25313 5.85211 8.37187 5.85211H10.6283C10.7471 5.85211 10.8433 5.94796 10.8433 6.0662V8.26056H13.046C13.1647 8.26056 13.2609 8.35637 13.2609 8.47465V10.7225C13.2609 10.8408 13.1647 10.9366 13.046 10.9366H10.8433V13.131C10.8433 13.2493 10.7471 13.3451 10.6283 13.3451H8.37187C8.25313 13.3451 8.15697 13.2493 8.15697 13.131Z" fill="#999999"/>
</svg>
