<svg width="19" height="19" viewBox="0 0 19 19" fill="none" xmlns="http://www.w3.org/2000/svg">
<path d="M7.95947 3.95457V14.0603C10.66 14.9418 13.5324 16.6792 15.2833 17.8404C15.9903 18.3093 16.946 17.7782 16.946 16.8992V1.11578C16.946 0.236696 15.9903 -0.294443 15.2833 0.174415C13.5324 1.33569 10.66 3.07307 7.95947 3.95457Z" fill="#999999"/>
<path d="M3.37891 4.57977C1.56368 4.57428 0 6.06547 0 7.97485V10.0396C0 11.9489 1.56368 13.4402 3.37891 13.4347C4.31005 13.4319 5.28636 13.4714 6.09797 13.5986C6.37118 13.6413 6.64987 13.6979 6.93243 13.7663V4.24805C6.64987 4.31652 6.37118 4.37305 6.09797 4.41586C5.28636 4.54304 4.31005 4.58258 3.37891 4.57977Z" fill="#999999"/>
<path d="M2.31104 13.2598C2.64918 13.374 3.00893 13.4351 3.37913 13.434C4.31028 13.4312 5.28659 13.4708 6.0982 13.5979C6.20438 13.6145 6.3114 13.6332 6.41914 13.654V16.8389C6.41914 18.0322 5.49951 18.9995 4.36509 18.9995C3.23067 18.9995 2.31104 18.0322 2.31104 16.8389V13.2598Z" fill="#999999"/>
<path d="M16.9458 11.1689C18.0803 11.1689 18.9999 10.2016 18.9999 9.00829C18.9999 7.81497 18.0803 6.84766 16.9458 6.84766V11.1689Z" fill="#999999"/>
</svg>
