<svg width="8" height="12" viewBox="0 0 8 12" fill="none" xmlns="http://www.w3.org/2000/svg">
<path d="M7.2002 6.00339C7.2002 5.88594 7.17898 5.77753 7.13654 5.67815C7.08939 5.57877 7.01866 5.48391 6.92436 5.39356L1.41473 0.230379C1.25442 0.0767932 1.0611 4.16977e-07 0.834774 3.97191e-07C0.679175 3.83588e-07 0.540078 0.036138 0.417485 0.108414C0.290176 0.176173 0.188801 0.271034 0.113359 0.392999C0.0379172 0.510447 0.000196019 0.641446 0.000196007 0.785997C0.000195988 1.00282 0.0874257 1.19481 0.261886 1.36194L5.22691 6.00339L0.261885 10.6448C0.0874249 10.812 0.000195114 11.0017 0.000195095 11.214C0.000195082 11.3631 0.0379162 11.4963 0.113358 11.6138C0.1888 11.7312 0.290175 11.8238 0.417484 11.8916C0.540077 11.9639 0.679173 12 0.834773 12C1.0611 12 1.25442 11.9255 1.41473 11.7764L6.92436 6.61321C7.01866 6.52287 7.08939 6.42801 7.13654 6.32863C7.17898 6.22925 7.2002 6.12084 7.2002 6.00339Z" fill="#999999"/>
</svg>
