<svg width="19" height="26" viewBox="0 0 19 26" fill="none" xmlns="http://www.w3.org/2000/svg">
<path d="M6.66667 18.5254C10.3486 18.5254 13.3333 15.6152 13.3333 12.0254C13.3333 8.43554 10.3486 5.52539 6.66667 5.52539C2.98477 5.52539 0 8.43554 0 12.0254C0 15.6152 2.98477 18.5254 6.66667 18.5254Z" fill="#999999"/>
<path fill-rule="evenodd" clip-rule="evenodd" d="M10.3335 0.975C10.3335 0.436527 10.7812 0 11.3335 0H17.3335C18.254 0 19.0002 0.727532 19.0002 1.625V7.475C19.0002 8.01347 18.5524 8.45 18.0002 8.45C17.4479 8.45 17.0002 8.01347 17.0002 7.475V1.95H11.3335C10.7812 1.95 10.3335 1.51347 10.3335 0.975Z" fill="#999999"/>
<path fill-rule="evenodd" clip-rule="evenodd" d="M18.5074 0.48088C18.8978 0.86165 18.8978 1.47898 18.5074 1.85974L12.0875 8.11907C11.697 8.49984 11.0638 8.49984 10.6733 8.11907C10.2827 7.73831 10.2827 7.12098 10.6733 6.74021L17.0931 0.48088C17.4837 0.100123 18.1169 0.100123 18.5074 0.48088Z" fill="#999999"/>
<path fill-rule="evenodd" clip-rule="evenodd" d="M6.66699 17.5508C7.21926 17.5508 7.66699 17.9873 7.66699 18.5258V25.0258C7.66699 25.5642 7.21926 26.0008 6.66699 26.0008C6.11471 26.0008 5.66699 25.5642 5.66699 25.0258V18.5258C5.66699 17.9873 6.11471 17.5508 6.66699 17.5508Z" fill="#999999"/>
<path fill-rule="evenodd" clip-rule="evenodd" d="M2.3335 22.1C2.3335 21.5615 2.78122 21.125 3.3335 21.125H10.0002C10.5524 21.125 11.0002 21.5615 11.0002 22.1C11.0002 22.6385 10.5524 23.075 10.0002 23.075H3.3335C2.78122 23.075 2.3335 22.6385 2.3335 22.1Z" fill="#999999"/>
</svg>
