<svg width="19" height="20" viewBox="0 0 19 20" fill="none" xmlns="http://www.w3.org/2000/svg">
<path d="M14 0C12.5135 0 11.2795 1.1688 11.0415 2.7027H14C14.4142 2.7027 14.75 3.06572 14.75 3.51351C14.75 3.96131 14.4142 4.32432 14 4.32432H11V7.02703H14C14.4142 7.02703 14.75 7.39004 14.75 7.83784C14.75 8.28562 14.4142 8.64865 14 8.64865H11V11.3514H14C14.4142 11.3514 14.75 11.7144 14.75 12.1622C14.75 12.6099 14.4142 12.973 14 12.973H11V15.6757H14C14.4142 15.6757 14.75 16.0387 14.75 16.4865C14.75 16.9343 14.4142 17.2973 14 17.2973H11.0415C11.2795 18.8312 12.5135 20 14 20H16C17.6569 20 19 18.548 19 16.7568V3.24324C19 1.45205 17.6569 0 16 0H14Z" fill="#999999"/>
</svg>
