<svg width="19" height="20" viewBox="0 0 19 20" fill="none" xmlns="http://www.w3.org/2000/svg">
<path d="M16.6351 1.26934C15.6482 0.243553 14.0481 0.243553 13.0612 1.26934L11.2646 3.1367L15.7318 7.78019L17.5285 5.91276C18.5154 4.88696 18.5154 3.22382 17.5285 2.19803L16.6351 1.26934Z" fill="#999999"/>
<path d="M10.7605 12.9484L6.2936 8.30469L4.49697 10.172C4.29271 10.3843 4.29271 10.7285 4.49697 10.9408C4.67194 11.1227 4.70036 11.4071 4.56509 11.6224L2.67969 14.624L4.69 16.7135L7.56892 14.7461C7.77588 14.6047 8.05006 14.6339 8.22515 14.816C8.42918 15.028 8.75988 15.028 8.96382 14.816L10.7605 12.9484Z" fill="#999999"/>
<path d="M15.0426 8.49681L10.5756 3.85352L6.98193 7.58825L11.4487 12.2318L15.0426 8.49681Z" fill="#999999"/>
<path d="M2.9707 14.9258L0.730957 17.255V18.7395H2.05957L4.34904 16.3584L2.9707 14.9258Z" fill="#999999"/>
<path fill-rule="evenodd" clip-rule="evenodd" d="M0 18.7405C0 18.3207 0.32718 17.9805 0.730769 17.9805H18.2692C18.6728 17.9805 19 18.3207 19 18.7405C19 19.1602 18.6728 19.5005 18.2692 19.5005H0.730769C0.32718 19.5005 0 19.1602 0 18.7405Z" fill="#999999"/>
</svg>
