<svg width="19" height="20" viewBox="0 0 19 20" fill="none" xmlns="http://www.w3.org/2000/svg">
<path d="M1.02686 15.3559V15.392C1.02686 17.6609 2.86612 19.5001 5.13496 19.5001H13.8647C16.1335 19.5001 17.9728 17.6609 17.9728 15.392V15.3559C17.3686 15.7054 16.667 15.9055 15.9187 15.9055C14.9911 15.9055 14.1357 15.5978 13.4486 15.0801C12.5073 16.2112 11.0884 16.9325 9.49983 16.9325C7.91122 16.9325 6.49234 16.2112 5.55101 15.0801C4.86396 15.5978 4.00856 15.9055 3.08091 15.9055C2.33265 15.9055 1.63111 15.7054 1.02686 15.3559Z" fill="#999999"/>
<path d="M19 9.74351C19 8.60905 18.0804 7.68945 16.9459 7.68945H2.05405C0.919631 7.68945 0 8.60905 0 9.74351V11.7976C0 13.4992 1.37945 14.8786 3.08108 14.8786C4.19698 14.8786 5.17432 14.2854 5.71494 13.3972C6.33871 14.8714 7.79852 15.9057 9.5 15.9057C11.2015 15.9057 12.6613 14.8714 13.2851 13.3972C13.8256 14.2854 14.8031 14.8786 15.9189 14.8786C17.6206 14.8786 19 13.4992 19 11.7976V9.74351Z" fill="#999999"/>
<path d="M15.6446 4.60805C15.3811 4.60532 15.1334 4.53767 14.9148 4.42174C14.9 4.48142 14.8921 4.54386 14.8921 4.60813V6.66219H16.4326V4.60813C16.4326 4.54321 16.4246 4.48016 16.4094 4.41992C16.1798 4.54203 15.9193 4.6109 15.6446 4.60805Z" fill="#999999"/>
<path d="M14.0474 2.65731C13.8609 3.63625 14.6362 4.59758 15.6446 4.60803C16.641 4.61834 17.45 3.68519 17.2819 2.69081C17.1341 1.81748 16.2192 1.12375 15.6614 0.5C15.1113 1.1161 14.2102 1.80219 14.0474 2.65731Z" fill="#999999"/>
<path d="M9.482 4.60805C9.21846 4.60532 8.97084 4.53767 8.75219 4.42174C8.7374 4.48142 8.72949 4.54386 8.72949 4.60813V6.66219H10.27V4.60813C10.27 4.54321 10.262 4.48016 10.2468 4.41992C10.0172 4.54203 9.75672 4.6109 9.482 4.60805Z" fill="#999999"/>
<path d="M7.88476 2.65731C7.69825 3.63625 8.47356 4.59758 9.482 4.60803C10.4784 4.61834 11.2874 3.68519 11.1193 2.69081C10.9715 1.81748 10.0566 1.12375 9.49884 0.5C8.94866 1.1161 8.04765 1.80219 7.88476 2.65731Z" fill="#999999"/>
<path d="M3.32035 4.60805C3.05684 4.60532 2.80924 4.53767 2.59058 4.42174C2.57575 4.48142 2.56787 4.54386 2.56787 4.60813V6.66219H4.10841V4.60813C4.10841 4.54321 4.10038 4.48016 4.08525 4.41992C3.85557 4.54203 3.59508 4.6109 3.32035 4.60805Z" fill="#999999"/>
<path d="M1.72265 2.65731C1.53616 3.63625 2.31142 4.59758 3.31988 4.60803C4.31635 4.61834 5.12533 3.68519 4.95716 2.69081C4.80945 1.81748 3.89451 1.12375 3.33671 0.5C2.7866 1.1161 1.88556 1.80219 1.72265 2.65731Z" fill="#999999"/>
</svg>
