<svg width="25" height="26" viewBox="0 0 25 26" fill="none" xmlns="http://www.w3.org/2000/svg">
<path d="M12.5 0.890625C5.81265 0.890625 0.390625 6.3146 0.390625 13C0.390625 19.6893 5.81265 25.1094 12.5 25.1094C19.1874 25.1094 24.6094 19.6893 24.6094 13C24.6094 6.3146 19.1874 0.890625 12.5 0.890625ZM12.5 6.26172C13.6326 6.26172 14.5508 7.17988 14.5508 8.3125C14.5508 9.44512 13.6326 10.3633 12.5 10.3633C11.3674 10.3633 10.4492 9.44512 10.4492 8.3125C10.4492 7.17988 11.3674 6.26172 12.5 6.26172ZM15.2344 18.6641C15.2344 18.9876 14.972 19.25 14.6484 19.25H10.3516C10.028 19.25 9.76562 18.9876 9.76562 18.6641V17.4922C9.76562 17.1686 10.028 16.9062 10.3516 16.9062H10.9375V13.7812H10.3516C10.028 13.7812 9.76562 13.5189 9.76562 13.1953V12.0234C9.76562 11.6999 10.028 11.4375 10.3516 11.4375H13.4766C13.8001 11.4375 14.0625 11.6999 14.0625 12.0234V16.9062H14.6484C14.972 16.9062 15.2344 17.1686 15.2344 17.4922V18.6641Z" fill="#999999"/>
</svg>
