<svg width="19" height="14" viewBox="0 0 19 14" fill="none" xmlns="http://www.w3.org/2000/svg">
<path fill-rule="evenodd" clip-rule="evenodd" d="M4.10811 0C1.83926 0 0 1.92862 0 4.30769V9.69231C0 12.0713 1.83926 14 4.10811 14H14.8919C17.1607 14 19 12.0713 19 9.69231V4.30769C19 1.92862 17.1607 0 14.8919 0H4.10811ZM2.56757 3.76923C2.56757 3.32316 2.91243 2.96154 3.33784 2.96154H3.34811C3.77351 2.96154 4.11838 3.32316 4.11838 3.76923C4.11838 4.2153 3.77351 4.57692 3.34811 4.57692H3.33784C2.91243 4.57692 2.56757 4.2153 2.56757 3.76923ZM5.64865 3.76923C5.64865 3.32316 5.99351 2.96154 6.41892 2.96154H6.42919C6.85459 2.96154 7.19946 3.32316 7.19946 3.76923C7.19946 4.2153 6.85459 4.57692 6.42919 4.57692H6.41892C5.99351 4.57692 5.64865 4.2153 5.64865 3.76923ZM9.5 2.96154C9.0746 2.96154 8.72973 3.32316 8.72973 3.76923C8.72973 4.2153 9.0746 4.57692 9.5 4.57692H9.51027C9.93567 4.57692 10.2805 4.2153 10.2805 3.76923C10.2805 3.32316 9.93567 2.96154 9.51027 2.96154H9.5ZM11.8108 3.76923C11.8108 3.32316 12.1557 2.96154 12.5811 2.96154H12.5914C13.0167 2.96154 13.3616 3.32316 13.3616 3.76923C13.3616 4.2153 13.0167 4.57692 12.5914 4.57692H12.5811C12.1557 4.57692 11.8108 4.2153 11.8108 3.76923ZM15.6622 2.96154C15.2368 2.96154 14.8919 3.32316 14.8919 3.76923C14.8919 4.2153 15.2368 4.57692 15.6622 4.57692H15.6724C16.0978 4.57692 16.4427 4.2153 16.4427 3.76923C16.4427 3.32316 16.0978 2.96154 15.6724 2.96154H15.6622ZM2.56757 7C2.56757 6.55394 2.91243 6.19231 3.33784 6.19231H3.34811C3.77351 6.19231 4.11838 6.55394 4.11838 7C4.11838 7.44606 3.77351 7.80769 3.34811 7.80769H3.33784C2.91243 7.80769 2.56757 7.44606 2.56757 7ZM6.41892 6.19231C5.99351 6.19231 5.64865 6.55394 5.64865 7C5.64865 7.44606 5.99351 7.80769 6.41892 7.80769H6.42919C6.85459 7.80769 7.19946 7.44606 7.19946 7C7.19946 6.55394 6.85459 6.19231 6.42919 6.19231H6.41892ZM8.72973 7C8.72973 6.55394 9.0746 6.19231 9.5 6.19231H9.51027C9.93567 6.19231 10.2805 6.55394 10.2805 7C10.2805 7.44606 9.93567 7.80769 9.51027 7.80769H9.5C9.0746 7.80769 8.72973 7.44606 8.72973 7ZM12.5811 6.19231C12.1557 6.19231 11.8108 6.55394 11.8108 7C11.8108 7.44606 12.1557 7.80769 12.5811 7.80769H12.5914C13.0167 7.80769 13.3616 7.44606 13.3616 7C13.3616 6.55394 13.0167 6.19231 12.5914 6.19231H12.5811ZM14.8919 7C14.8919 6.55394 15.2368 6.19231 15.6622 6.19231H15.6724C16.0978 6.19231 16.4427 6.55394 16.4427 7C16.4427 7.44606 16.0978 7.80769 15.6724 7.80769H15.6622C15.2368 7.80769 14.8919 7.44606 14.8919 7ZM3.33784 9.42308C2.91243 9.42308 2.56757 9.78471 2.56757 10.2308C2.56757 10.6768 2.91243 11.0385 3.33784 11.0385H3.34811C3.77351 11.0385 4.11838 10.6768 4.11838 10.2308C4.11838 9.78471 3.77351 9.42308 3.34811 9.42308H3.33784ZM5.64865 10.2308C5.64865 9.78471 5.99351 9.42308 6.41892 9.42308H12.5811C13.0065 9.42308 13.3514 9.78471 13.3514 10.2308C13.3514 10.6768 13.0065 11.0385 12.5811 11.0385H6.41892C5.99351 11.0385 5.64865 10.6768 5.64865 10.2308ZM15.6622 9.42308C15.2368 9.42308 14.8919 9.78471 14.8919 10.2308C14.8919 10.6768 15.2368 11.0385 15.6622 11.0385H15.6724C16.0978 11.0385 16.4427 10.6768 16.4427 10.2308C16.4427 9.78471 16.0978 9.42308 15.6724 9.42308H15.6622Z" fill="#999999"/>
</svg>
