<svg width="19" height="20" viewBox="0 0 19 20" fill="none" xmlns="http://www.w3.org/2000/svg">
<path fill-rule="evenodd" clip-rule="evenodd" d="M13.3002 7.86328C13.5805 7.86328 13.8348 8.02772 13.9499 8.28337L18.2249 17.7834C18.3864 18.1423 18.2264 18.5641 17.8676 18.7255C17.5087 18.887 17.0869 18.727 16.9254 18.3682L15.6894 15.6216H10.9108L9.6749 18.3682C9.5134 18.727 9.09159 18.887 8.73278 18.7255C8.37396 18.5641 8.21399 18.1423 8.37539 17.7834L12.6504 8.28337C12.7655 8.02772 13.0198 7.86328 13.3002 7.86328ZM11.5521 14.1966H15.0482L13.3002 10.312L11.5521 14.1966Z" fill="#999999"/>
<path fill-rule="evenodd" clip-rule="evenodd" d="M5.6999 1.21289C6.0934 1.21289 6.4124 1.53189 6.4124 1.92539V3.11289H9.9749C10.3684 3.11289 10.6874 3.43189 10.6874 3.82539C10.6874 4.21889 10.3684 4.53789 9.9749 4.53789H8.50981C8.49423 4.70607 8.47267 4.89929 8.44274 5.11211C8.3371 5.8636 8.12449 6.87803 7.69234 7.90234C7.48676 8.38957 7.22877 8.88557 6.90456 9.35867C7.49899 9.60557 8.20049 9.76289 9.0249 9.76289C9.41839 9.76289 9.7374 10.0819 9.7374 10.4754C9.7374 10.8689 9.41839 11.1879 9.0249 11.1879C7.79798 11.1879 6.77717 10.9039 5.94 10.4833C5.82337 10.5914 5.7014 10.6962 5.57385 10.797C4.54019 11.6137 3.18036 12.1379 1.4249 12.1379C1.0314 12.1379 0.712402 11.8189 0.712402 11.4254C0.712402 11.0319 1.0314 10.7129 1.4249 10.7129C2.87569 10.7129 3.92055 10.2871 4.69041 9.67882C4.69342 9.67644 4.69645 9.67407 4.69946 9.67169C4.45996 9.47371 4.24453 9.26813 4.05198 9.06274C3.55905 8.53692 3.21503 8.01253 2.99336 7.61846C2.88218 7.42081 2.80078 7.25415 2.74605 7.13395C2.71865 7.07378 2.69785 7.02509 2.68329 6.98977C2.67599 6.9721 2.67026 6.95776 2.66603 6.94699L2.66079 6.93352L2.659 6.92884L2.65832 6.92703C2.65818 6.92668 2.65776 6.92556 3.3249 6.67539L2.65776 6.92556C2.5196 6.55712 2.70628 6.14642 3.07473 6.00825C3.44241 5.87038 3.85216 6.05599 3.99118 6.42292C3.99138 6.42348 3.99159 6.42404 3.9918 6.42459C3.9918 6.42458 3.9918 6.4246 3.9918 6.42459M3.9918 6.42459C3.99159 6.42404 3.99138 6.42348 3.99118 6.42292L3.99222 6.4256L4.00061 6.44636C4.00901 6.46671 4.023 6.49965 4.04292 6.5434C4.08281 6.63101 4.14614 6.76122 4.23535 6.91983C4.41447 7.23826 4.69388 7.66388 5.09157 8.08808C5.26371 8.27168 5.4578 8.45503 5.67586 8.62954C5.96033 8.22836 6.19167 7.79336 6.37937 7.34844C6.7488 6.47276 6.93693 5.58718 7.03165 4.91367C7.05066 4.77848 7.0658 4.65258 7.07787 4.53789H1.4249C1.0314 4.53789 0.712402 4.21889 0.712402 3.82539C0.712402 3.43189 1.0314 3.11289 1.4249 3.11289H4.9874V1.92539C4.9874 1.53189 5.3064 1.21289 5.6999 1.21289" fill="#999999"/>
</svg>
