<svg width="19" height="20" viewBox="0 0 19 20" fill="none" xmlns="http://www.w3.org/2000/svg">
<path d="M18.0022 8.91219C18.5852 8.91219 19.0647 8.43573 18.9928 7.8555C18.5171 4.02237 15.4882 0.984212 11.6667 0.507199C11.0883 0.434991 10.6133 0.915963 10.6133 1.50071V7.85339C10.6133 8.43817 11.0859 8.91219 11.6688 8.91219H18.0022Z" fill="#999999"/>
<path d="M8.4445 19.4996C12.7515 19.4996 16.3054 16.2654 16.824 12.086C16.896 11.5058 16.4164 11.0294 15.8334 11.0294H9.50006C8.91707 11.0294 8.4445 10.5554 8.4445 9.97059V3.61789C8.4445 3.03315 7.96949 2.55218 7.39104 2.62439C3.22444 3.14448 0 6.70922 0 11.0294C0 15.7074 3.78073 19.4996 8.4445 19.4996Z" fill="#999999"/>
</svg>
