<svg width="19" height="20" viewBox="0 0 19 20" fill="none" xmlns="http://www.w3.org/2000/svg">
<path fill-rule="evenodd" clip-rule="evenodd" d="M19 10C19 15.2467 14.7467 19.5 9.5 19.5C4.2533 19.5 0 15.2467 0 10C0 4.7533 4.2533 0.5 9.5 0.5C14.7467 0.5 19 4.7533 19 10ZM8.17575 3.67042C8.31183 4.07349 8.09534 4.51053 7.69233 4.64657C5.45821 5.40065 3.85135 7.51368 3.85135 10C3.85135 10.4254 3.50649 10.7703 3.08108 10.7703C2.65568 10.7703 2.31081 10.4254 2.31081 10C2.31081 6.83288 4.35829 4.14599 7.1996 3.18694C7.60267 3.05089 8.03967 3.26735 8.17575 3.67042ZM13.0165 4.57437C13.2889 4.24764 13.7747 4.20361 14.1014 4.47604C15.6816 5.79358 16.6892 7.77946 16.6892 10C16.6892 10.4254 16.3443 10.7703 15.9189 10.7703C15.4935 10.7703 15.1486 10.4254 15.1486 10C15.1486 8.2557 14.359 6.69663 13.1148 5.65925C12.7881 5.38682 12.7441 4.90111 13.0165 4.57437ZM11.2923 4.18207C11.3406 3.7594 11.0372 3.37762 10.6145 3.32932C10.1918 3.28101 9.81006 3.58448 9.76179 4.00714L9.02818 10.426C9.02305 10.4705 9.02192 10.5143 9.02428 10.5575C7.83355 10.7805 6.93243 11.8255 6.93243 13.0811C6.93243 14.4991 8.08198 15.6486 9.5 15.6486C10.918 15.6486 12.0676 14.4991 12.0676 13.0811C12.0676 12.0304 11.4366 11.1273 10.5329 10.7297C10.5449 10.6883 10.5536 10.6453 10.5588 10.601L11.2923 4.18207Z" fill="#999999"/>
</svg>
