<svg width="19" height="20" viewBox="0 0 19 20" fill="none" xmlns="http://www.w3.org/2000/svg">
<path fill-rule="evenodd" clip-rule="evenodd" d="M0 10C0 4.7533 4.2533 0.5 9.5 0.5C14.7467 0.5 19 4.7533 19 10C19 10.1723 18.9954 10.3435 18.9863 10.5135C18.9782 10.6672 18.9663 10.8198 18.9509 10.9714C18.76 12.852 18.0204 14.5704 16.8949 15.9642C15.1534 18.1207 12.4878 19.5 9.5 19.5C4.2533 19.5 0 15.2467 0 10ZM8.98649 2.05684V10.5135H17.4431C17.454 10.3437 17.4595 10.1725 17.4595 10C17.4595 5.60411 13.8959 2.04054 9.5 2.04054C9.32746 2.04054 9.15625 2.04602 8.98649 2.05684Z" fill="#999999"/>
</svg>
