<svg width="19" height="20" viewBox="0 0 19 20" fill="none" xmlns="http://www.w3.org/2000/svg">
<path d="M0 9.22984C0 8.09538 0.919622 7.17578 2.05404 7.17578H16.9458C18.0802 7.17578 18.9998 8.09538 18.9998 9.22984V10.0001C18.9998 15.2468 14.7465 19.5001 9.49991 19.5001C4.25326 19.5001 0 15.2468 0 10.0001V9.22984Z" fill="#999999"/>
<path d="M15.2752 4.22469C15.3361 3.91142 15.3532 3.58421 15.3207 3.25038C15.1992 2.00501 14.4166 0.983668 13.3541 0.5C12.4052 1.17984 11.8347 2.33317 11.9562 3.57854C12.055 4.59207 12.4274 5.36017 13.1907 6.14865H16.9456C17.5489 6.14865 18.1116 6.32203 18.5868 6.62167C18.7385 6.47666 18.8769 6.31741 18.9999 6.14578C18.5162 5.08337 17.4949 4.3007 16.2495 4.17923C15.9157 4.14666 15.5885 4.16384 15.2752 4.22469Z" fill="#999999"/>
<path d="M0.718061 6.45266C0.702594 6.39442 0.68533 6.33655 0.666248 6.27909C0.105702 4.59094 1.14436 2.79193 2.8866 2.4333C3.51386 2.30418 4.0826 1.97582 4.50804 1.49715C5.68974 0.167616 7.76709 0.167616 8.94878 1.49715C9.37417 1.97582 9.94293 2.30418 10.5702 2.4333C10.7076 2.46159 10.8406 2.49884 10.9689 2.5443C10.9097 2.91092 10.8961 3.29114 10.9338 3.67827C10.9418 3.76003 10.9514 3.84059 10.9623 3.91999C9.1853 3.61047 7.30102 4.17489 6.01255 5.69861C5.88847 5.84534 5.76262 5.99544 5.63535 6.14865H2.0542C1.57548 6.14865 1.12224 6.25783 0.718061 6.45266Z" fill="#999999"/>
<path d="M6.98975 6.14877C8.66064 4.41746 11.4138 4.45744 13.1879 6.14877H6.98975Z" fill="#999999"/>
</svg>
