<svg width="19" height="22" viewBox="0 0 19 22" fill="none" xmlns="http://www.w3.org/2000/svg">
<path d="M6.55997 6.36951C7.00384 5.22742 6.89133 4.03931 6.67783 2.54526C6.63898 2.46122 6.59736 2.35385 6.54825 2.23104C6.41525 1.89837 6.23694 1.45244 5.97203 1.05007C5.28457 0.00918011 4.06284 -0.264559 2.82278 0.258767C1.83153 0.677422 1.2069 1.39742 0.764308 2.24622C-0.475738 4.62473 -0.147065 6.94113 1.31821 9.12988C1.74572 9.76824 2.0084 10.4253 2.17161 11.1051L2.59589 11.0339L6.48705 10.4328C6.01889 9.09992 6.01919 7.76276 6.55997 6.36951Z" fill="#999999"/>
<path d="M6.98548 11.5605L6.84148 11.5854L2.8366 12.204L2.36523 12.2832C2.36864 12.3169 2.37191 12.3506 2.37505 12.3845C2.39424 12.5929 2.40485 12.8027 2.41546 13.0122C2.43672 13.4317 2.45794 13.8508 2.54789 14.2581C2.85038 15.6245 3.92151 16.2318 5.50465 16.0086C6.94639 15.8051 7.77387 14.8849 7.56962 13.5554C7.4666 12.8803 7.27904 12.1922 6.98548 11.5605Z" fill="#999999"/>
<path d="M12.4402 12.3156C11.9964 11.1735 12.1089 9.98546 12.3224 8.49155L12.321 8.49039C12.3599 8.40635 12.4028 8.29899 12.452 8.17618C12.585 7.84354 12.7632 7.39764 13.0281 6.99531C13.7143 5.95449 14.9374 5.68078 16.1773 6.20406C17.1686 6.62269 17.7932 7.34262 18.2358 8.19137C19.4759 10.5709 19.1473 12.8871 17.6819 15.0757C17.2624 15.7023 17.0016 16.3467 16.8378 17.0131L16.605 16.9788L12.6032 16.3606L12.524 16.3473C12.9813 15.0249 12.9768 13.6978 12.4402 12.3156Z" fill="#999999"/>
<path d="M12.0296 17.4746C11.7275 18.1148 11.5353 18.8146 11.4307 19.5009C11.2263 20.8304 12.0539 21.7505 13.4957 21.9539C15.0788 22.1771 16.1499 21.5698 16.4525 20.2036C16.5423 19.7963 16.5636 19.3773 16.5848 18.9578C16.5954 18.7482 16.6061 18.5385 16.6252 18.3301C16.6296 18.2831 16.6342 18.2363 16.6391 18.1896L16.372 18.1502L12.3518 17.529L12.0296 17.4746Z" fill="#999999"/>
</svg>
