<svg width="24" height="25" viewBox="0 0 24 25" fill="none" xmlns="http://www.w3.org/2000/svg">
<path d="M20.1902 14.5608L19.0602 12.6808C18.8102 12.2708 18.5902 11.4808 18.5902 11.0008V9.13078C18.5902 5.50078 15.6402 2.55078 12.0202 2.55078C8.3902 2.56078 5.4402 5.50078 5.4402 9.13078V10.9908C5.4402 11.4708 5.2202 12.2608 4.9802 12.6708L3.8502 14.5508C3.4202 15.2808 3.3202 16.1108 3.5902 16.8308C3.8602 17.5608 4.4702 18.1408 5.2702 18.4008C6.3502 18.7608 7.4402 19.0208 8.5502 19.2108C8.6602 19.2308 8.7702 19.2408 8.8802 19.2608C9.0202 19.2808 9.1702 19.3008 9.3202 19.3208C9.5802 19.3608 9.8402 19.3908 10.1102 19.4108C10.7402 19.4708 11.3802 19.5008 12.0202 19.5008C12.6502 19.5008 13.2802 19.4708 13.9002 19.4108C14.1302 19.3908 14.3602 19.3708 14.5802 19.3408C14.7602 19.3208 14.9402 19.3008 15.1202 19.2708C15.2302 19.2608 15.3402 19.2408 15.4502 19.2208C16.5702 19.0408 17.6802 18.7608 18.7602 18.4008C19.5302 18.1408 20.1202 17.5608 20.4002 16.8208C20.6802 16.0708 20.6002 15.2508 20.1902 14.5608ZM12.7502 10.5008C12.7502 10.9208 12.4102 11.2608 11.9902 11.2608C11.5702 11.2608 11.2302 10.9208 11.2302 10.5008V7.40078C11.2302 6.98078 11.5702 6.64078 11.9902 6.64078C12.4102 6.64078 12.7502 6.98078 12.7502 7.40078V10.5008Z" fill="#333333"/>
<path d="M14.8302 20.51C14.4102 21.67 13.3002 22.5 12.0002 22.5C11.2102 22.5 10.4302 22.18 9.88018 21.61C9.56018 21.31 9.32018 20.91 9.18018 20.5C9.31018 20.52 9.44018 20.53 9.58018 20.55C9.81018 20.58 10.0502 20.61 10.2902 20.63C10.8602 20.68 11.4402 20.71 12.0202 20.71C12.5902 20.71 13.1602 20.68 13.7202 20.63C13.9302 20.61 14.1402 20.6 14.3402 20.57C14.5002 20.55 14.6602 20.53 14.8302 20.51Z" fill="#333333"/>
</svg>
