<svg width="39" height="40" viewBox="0 0 39 40" fill="none" xmlns="http://www.w3.org/2000/svg">
<path d="M10.613 17.411C10.9268 12.0349 14.7504 7.08301 19.8954 7.08301C25.0404 7.08301 28.864 12.0349 29.1777 17.411C29.3206 19.8558 29.6977 22.2005 30.8613 24.346C32.0999 26.6297 30.9861 29.7523 28.4948 30.0597C25.6293 30.413 22.2743 30.7497 19.8954 30.7497C17.5165 30.7497 14.1615 30.413 11.296 30.0597C8.80472 29.7523 7.69081 26.6297 8.92944 24.346C10.0932 22.2005 10.4703 19.8558 10.613 17.411Z" fill="url(#paint0_linear_7130_2612)"/>
<path d="M17.1375 30.417C16.8665 30.9073 16.7114 31.4765 16.7114 32.0837C16.7114 33.9247 18.1369 35.417 19.8955 35.417C21.6541 35.417 23.0796 33.9247 23.0796 32.0837C23.0796 31.4765 22.9245 30.9073 22.6536 30.417" fill="url(#paint1_linear_7130_2612)"/>
<path d="M21.3744 6.86744C21.4472 6.67639 21.4873 6.46794 21.4873 6.24967C21.4873 5.32921 20.7745 4.58301 19.8953 4.58301C19.016 4.58301 18.3032 5.32921 18.3032 6.24967C18.3032 6.46794 18.3433 6.67639 18.4161 6.86744" fill="url(#paint2_linear_7130_2612)"/>
<defs>
<linearGradient id="paint0_linear_7130_2612" x1="19.8954" y1="7.08301" x2="19.8954" y2="30.7497" gradientUnits="userSpaceOnUse">
<stop offset="1" stop-color="#FF9900"/>
</linearGradient>
<linearGradient id="paint1_linear_7130_2612" x1="19.8955" y1="30.417" x2="19.8955" y2="35.417" gradientUnits="userSpaceOnUse">
<stop offset="1" stop-color="#FF9900"/>
</linearGradient>
<linearGradient id="paint2_linear_7130_2612" x1="19.8953" y1="4.58301" x2="19.8953" y2="6.86744" gradientUnits="userSpaceOnUse">
<stop offset="1" stop-color="#FF9900"/>
</linearGradient>
</defs>
</svg>
