<svg width="18" height="18" viewBox="0 0 18 18" fill="none" xmlns="http://www.w3.org/2000/svg">
<path d="M7.52694 7.19013C7.56085 7.10537 7.61161 7.0284 7.67622 6.96386L13.2977 1.34227C14.0875 0.552577 15.3678 0.552577 16.1575 1.34227C16.9472 2.13196 16.9472 3.4123 16.1575 4.20198L10.5359 9.82356C10.4714 9.88816 10.3944 9.93893 10.3096 9.97283L6.40203 11.5358C6.12692 11.6459 5.8539 11.3729 5.96395 11.0978L7.52694 7.19013Z" stroke="#999999" stroke-width="1.5" stroke-linecap="round" stroke-linejoin="round"/>
<path d="M15.4549 4.90464L12.5952 2.04492" stroke="#999999" stroke-width="1.5" stroke-linecap="round" stroke-linejoin="round"/>
<path d="M8.10134 0.75H4.20945C2.29885 0.75 0.75 2.29885 0.75 4.20946V13.2905C0.75 15.2011 2.29885 16.75 4.20945 16.75H13.2905C15.2011 16.75 16.75 15.2011 16.75 13.2905V9.39865" stroke="#999999" stroke-width="1.5" stroke-linecap="round" stroke-linejoin="round"/>
</svg>
