<svg width="19" height="20" viewBox="0 0 19 20" fill="none" xmlns="http://www.w3.org/2000/svg">
<path d="M4.52139e-05 0.710536C-0.00238283 0.593288 0.0932978 0.497617 0.210535 0.500045L2.93607 0.556394C3.84449 0.575177 4.28653 1.67435 3.64404 2.31684L1.81683 4.14406C1.17435 4.78654 0.0751764 4.3445 0.0563936 3.43608L4.52139e-05 0.710536Z" fill="#999999"/>
<path d="M13.6167 16.9357C13.4297 16.7487 13.3247 16.4952 13.3247 16.2308V14.0236C13.3247 13.9134 13.4139 13.8242 13.5241 13.8242H15.7312C15.9957 13.8242 16.2492 13.9292 16.4362 14.1162L18.1128 15.7928C18.4268 16.1068 18.2044 16.6437 17.7603 16.6437H16.3436C16.2334 16.6437 16.1442 16.7329 16.1442 16.8431V18.2599C16.1442 18.7039 15.6073 18.9263 15.2933 18.6123L13.6167 16.9357Z" fill="#999999"/>
<path fill-rule="evenodd" clip-rule="evenodd" d="M2.20695 2.70715C2.49599 2.41801 2.96469 2.41792 3.25383 2.70695L13.9085 13.3576C14.1977 13.6466 14.1978 14.1153 13.9087 14.4044C13.6197 14.6936 13.1509 14.6937 12.8618 14.4046L2.20715 3.75404C1.91801 3.465 1.91792 2.9963 2.20695 2.70715Z" fill="#999999"/>
<path fill-rule="evenodd" clip-rule="evenodd" d="M15.7623 5.45346C13.332 3.02314 9.67045 2.57071 6.7823 4.10003C6.421 4.29134 5.97301 4.15353 5.78169 3.79223C5.59038 3.43091 5.72818 2.98293 6.0895 2.79161C9.53582 0.966735 13.9063 1.50378 16.8091 4.40657C17.0982 4.69567 17.0982 5.16437 16.8091 5.45346C16.52 5.74256 16.0514 5.74256 15.7623 5.45346ZM3.29251 6.28099C3.65379 6.47236 3.79151 6.92038 3.60014 7.28165C2.07011 10.17 2.52233 13.8321 4.95297 16.2628C5.24205 16.5519 5.24205 17.0205 4.95297 17.3096C4.66387 17.5987 4.19517 17.5987 3.90609 17.3096C1.00291 14.4064 0.466103 10.0352 2.29185 6.58861C2.48322 6.22734 2.93124 6.08961 3.29251 6.28099Z" fill="#999999"/>
<path fill-rule="evenodd" clip-rule="evenodd" d="M18.2595 0.994141C18.6683 0.994141 18.9998 1.32557 18.9998 1.7344V1.99818C18.9998 3.2416 18.5059 4.43409 17.6267 5.31332L12.9662 9.97379C12.6771 10.2629 12.2084 10.2629 11.9193 9.97379C11.6302 9.68469 11.6302 9.21596 11.9193 8.92696L16.5797 4.26643C17.1813 3.66485 17.5193 2.84894 17.5193 1.99818V1.7344C17.5193 1.32557 17.8507 0.994141 18.2595 0.994141ZM9.47652 12.4165C9.76562 12.7056 9.76562 13.1744 9.47652 13.4634L4.81254 18.1275C3.93332 19.0067 2.74083 19.5006 1.49741 19.5006H1.23391C0.82508 19.5006 0.493652 19.1692 0.493652 18.7604C0.493652 18.3516 0.82508 18.0201 1.23391 18.0201H1.49741C2.34817 18.0201 3.16409 17.6822 3.76566 17.0806L8.4297 12.4165C8.71879 12.1274 9.18753 12.1274 9.47652 12.4165Z" fill="#999999"/>
</svg>
