<svg width="28" height="28" viewBox="0 0 28 28" fill="none" xmlns="http://www.w3.org/2000/svg">
<path d="M14.001 24C13.742 24 13.4936 23.8971 13.3104 23.714C13.1273 23.5308 13.0244 23.2824 13.0244 23.0234V4.97656C13.0244 4.71756 13.1273 4.46917 13.3104 4.28603C13.4936 4.10289 13.742 4 14.001 4C14.26 4 14.5084 4.10289 14.6915 4.28603C14.8746 4.46917 14.9775 4.71756 14.9775 4.97656V23.0234C14.9775 23.2824 14.8746 23.5308 14.6915 23.714C14.5084 23.8971 14.26 24 14.001 24Z" fill="white"/>
<path d="M23.0244 14.9766H4.97754C4.71854 14.9766 4.47015 14.8737 4.287 14.6905C4.10386 14.5074 4.00098 14.259 4.00098 14C4.00098 13.741 4.10386 13.4926 4.287 13.3095C4.47015 13.1263 4.71854 13.0234 4.97754 13.0234H23.0244C23.2834 13.0234 23.5318 13.1263 23.7149 13.3095C23.8981 13.4926 24.001 13.741 24.001 14C24.001 14.259 23.8981 14.5074 23.7149 14.6905C23.5318 14.8737 23.2834 14.9766 23.0244 14.9766Z" fill="white"/>
</svg>
