<svg width="19" height="22" viewBox="0 0 19 22" fill="none" xmlns="http://www.w3.org/2000/svg">
<path d="M9.5006 10.9996H0.972875C0.804174 9.5608 0.81186 8.0772 0.819686 6.56583C0.821347 6.24607 0.823008 5.92491 0.823008 5.60283C0.823008 4.70195 1.4084 3.89996 2.28145 3.60472L8.78969 1.4039C9.01993 1.32604 9.26026 1.28711 9.5006 1.28711V10.9996Z" fill="#999999"/>
<path d="M9.50049 11V20.7125C9.54185 20.7125 9.58321 20.7077 9.62359 20.6981C12.0812 20.1134 14.1146 18.8228 15.7239 16.8263C17.1896 15.0082 17.7879 13.0496 18.0283 11H9.50049Z" fill="#999999"/>
<path fill-rule="evenodd" clip-rule="evenodd" d="M9.94226 2.14767C9.65568 2.05077 9.34424 2.05077 9.05777 2.14767L2.54955 4.34849C2.00628 4.53221 1.63656 5.03389 1.63656 5.60322C1.63656 5.91588 1.63528 6.22517 1.63401 6.53115C1.61855 10.2447 1.60512 13.4722 3.91859 16.3421C5.40388 18.1847 7.25838 19.3675 9.50002 19.9162C11.7416 19.3675 13.5961 18.1847 15.0815 16.3421C17.3949 13.4721 17.3815 10.2447 17.366 6.53115C17.3647 6.22517 17.3634 5.91588 17.3634 5.60322C17.3634 5.03389 16.9937 4.53221 16.4505 4.34849L9.94226 2.14767ZM8.52033 0.66091C9.15482 0.446363 9.84521 0.446363 10.4796 0.66091L16.9878 2.86173C18.1907 3.26849 18.9917 4.37079 18.9917 5.60322C18.9917 5.9306 18.9938 6.25971 18.9958 6.59008C19.0184 10.2143 19.042 13.9902 16.3655 17.3106C14.6479 19.4414 12.459 20.8343 9.81753 21.4628C9.609 21.5124 9.39092 21.5124 9.1825 21.4628C6.54091 20.8343 4.35208 19.4414 2.6345 17.3106C-0.0420163 13.9902 -0.0184497 10.2143 0.00416176 6.59008C0.00622425 6.25971 0.00827605 5.93061 0.00827605 5.60322C0.00827605 4.37079 0.809338 3.26849 2.01218 2.86173L8.52033 0.66091Z" fill="#999999"/>
</svg>
