<svg width="30" height="30" viewBox="0 0 30 30" fill="none" xmlns="http://www.w3.org/2000/svg">
<path d="M28.9442 28.9437H5.56053C3.06097 28.9437 1.03467 26.9174 1.03467 24.4178V1.03418" stroke="#333333" stroke-width="1.5" stroke-linecap="round"/>
<path d="M25.1727 24.4173C24.3395 24.4173 23.6641 23.7419 23.6641 22.9087V7.06819C23.6641 6.23501 24.3395 5.55957 25.1727 5.55957H27.4356C28.2688 5.55957 28.9442 6.23501 28.9442 7.06819V22.9087C28.9442 23.7419 28.2688 24.4173 27.4356 24.4173H25.1727Z" stroke="#333333" stroke-width="1.5" stroke-linecap="round"/>
<path d="M16.1209 24.4182C15.2877 24.4182 14.6123 23.7428 14.6123 22.9096V14.6121C14.6123 13.7789 15.2877 13.1035 16.1209 13.1035H18.3839C19.2171 13.1035 19.8925 13.7789 19.8925 14.6121V22.9096C19.8925 23.7428 19.2171 24.4182 18.3839 24.4182H16.1209Z" stroke="#333333" stroke-width="1.5" stroke-linecap="round"/>
<path d="M7.06917 24.4178C6.23599 24.4178 5.56055 23.7424 5.56055 22.9092V2.5428C5.56055 1.70962 6.23599 1.03418 7.06917 1.03418H9.3321C10.1653 1.03418 10.8407 1.70962 10.8407 2.5428V22.9092C10.8407 23.7424 10.1653 24.4178 9.3321 24.4178H7.06917Z" stroke="#333333" stroke-width="1.5" stroke-linecap="round"/>
</svg>
