<svg width="30" height="30" viewBox="0 0 30 30" fill="none" xmlns="http://www.w3.org/2000/svg">
<g clip-path="url(#clip0_7130_2477)">
<path d="M1.03027 13.9008C1.03027 12.282 2.34254 10.9697 3.96131 10.9697H25.2113C26.8301 10.9697 28.1423 12.282 28.1423 13.9008V14.9999C28.1423 22.4866 22.073 28.5559 14.5863 28.5559C7.09952 28.5559 1.03027 22.4866 1.03027 14.9999V13.9008Z" stroke="#333333" stroke-width="1.5" stroke-linecap="round"/>
<path d="M9.76318 10.9699C10.0912 10.5689 10.4143 10.1811 10.7293 9.80846C13.1116 6.99128 17.3423 6.99527 19.9664 9.61942C20.381 10.034 20.7301 10.4887 21.0131 10.9699" stroke="#333333" stroke-width="1.5" stroke-linecap="round"/>
<path d="M26.1392 11.1201C26.9403 10.7715 27.6342 10.2102 28.1426 9.50059C27.4525 7.98459 25.995 6.86775 24.2179 6.69442C23.7417 6.64795 23.2747 6.67245 22.8276 6.75928C22.9145 6.31227 22.939 5.84536 22.8925 5.36899C22.7192 3.5919 21.6024 2.13451 20.0864 1.44434C18.7322 2.41444 17.9181 4.06018 18.0915 5.83727C18.2373 7.33274 18.801 8.45417 19.9669 9.62009C20.5691 10.2224 21.1596 10.6639 21.7957 10.9702" stroke="#333333" stroke-width="1.5" stroke-linecap="round"/>
<path d="M18.0714 5.18216C17.5362 4.70645 16.8713 4.35915 16.113 4.20306C15.2179 4.01881 14.4063 3.55026 13.7993 2.86722C12.1131 0.97004 9.14876 0.97004 7.46252 2.86722C6.85543 3.55026 6.04386 4.01881 5.14878 4.20306C2.66266 4.7148 1.18054 7.28191 1.98042 9.69082C2.18443 10.3052 2.24392 10.9547 2.15887 11.5895" stroke="#333333" stroke-width="1.5" stroke-linecap="round"/>
</g>
<defs>
<clipPath id="clip0_7130_2477">
<rect width="30" height="30" fill="white"/>
</clipPath>
</defs>
</svg>
