<svg width="24" height="21" viewBox="0 0 24 21" fill="none" xmlns="http://www.w3.org/2000/svg">
<path d="M23.6074 19.2197L17.3501 13.7753C18.722 12.3441 19.5499 10.5051 19.5499 8.5C19.5499 3.95087 15.2964 0.25 10.0679 0.25C4.83948 0.25 0.585938 3.95087 0.585938 8.5C0.585938 13.0491 4.83948 16.75 10.0679 16.75C12.3725 16.75 14.4861 16.0296 16.131 14.836L22.3885 20.2804C22.5568 20.4269 22.7775 20.5002 22.9979 20.5002C23.2184 20.5002 23.4391 20.4269 23.6074 20.2804C23.9442 19.9874 23.9442 19.5126 23.6074 19.2197ZM2.30994 8.5C2.30994 4.77812 5.78983 1.75 10.0679 1.75C14.346 1.75 17.8259 4.77812 17.8259 8.5C17.8259 12.2219 14.346 15.25 10.0679 15.25C5.78983 15.25 2.30994 12.2219 2.30994 8.5Z" fill="#999999"/>
</svg>
