<svg width="39" height="39" viewBox="0 0 39 39" fill="none" xmlns="http://www.w3.org/2000/svg">
<rect x="1.44189" y="0.5" width="37.0584" height="38" rx="9.5" stroke="#333333"/>
<path d="M16.2651 10.5469C16.6917 10.2868 17.2583 10.4322 17.5161 10.8955L17.519 10.9004L17.6313 11.0986C18.1694 12.0498 18.9839 12.7059 19.9595 12.7061C20.9365 12.7061 21.7496 12.0486 22.2827 11.0957L22.2817 11.0947L22.3882 10.9072L22.3892 10.9082C22.6514 10.4566 23.1743 10.3078 23.5864 10.5029L23.6675 10.5469L23.6782 10.5537L25.437 11.585C25.9989 11.914 26.2087 12.6677 25.8726 13.2705C25.3388 14.2252 25.2042 15.2582 25.6802 16.1016C26.1605 16.952 27.1172 17.3545 28.2056 17.3545C28.7981 17.3547 29.3207 17.8293 29.3892 18.4619L29.397 18.5908V20.417C29.3969 21.1112 28.8436 21.6455 28.2153 21.6455C27.1275 21.6455 26.17 22.0475 25.6909 22.8994C25.2453 23.692 25.3409 24.6505 25.7993 25.5537L25.895 25.7344C26.2268 26.3242 26.0198 27.0857 25.4575 27.415V27.416L23.6987 28.4473L23.688 28.4531C23.2681 28.7091 22.6949 28.5754 22.4136 28.0996L22.3013 27.9023V27.9014C21.7632 26.9502 20.9479 26.2939 19.9722 26.2939C19.0563 26.2941 18.2845 26.8721 17.7524 27.7295L17.6509 27.9023L17.5435 28.0928C17.2636 28.5742 16.6871 28.7104 16.2651 28.4531L16.2544 28.4473L14.4956 27.416V27.415C13.9337 27.086 13.723 26.3323 14.0591 25.7295C14.5971 24.776 14.736 23.7437 14.2612 22.8994C13.7822 22.0478 12.8254 21.6456 11.7378 21.6455C11.1044 21.6455 10.5562 21.106 10.5562 20.417V18.583C10.5564 17.8889 11.1096 17.3545 11.7378 17.3545C12.8254 17.3544 13.7821 16.9525 14.2612 16.1025C14.7363 15.2596 14.5977 14.2293 14.0591 13.2803H14.0601C13.7232 12.6759 13.9353 11.913 14.4956 11.585L16.2544 10.5537L16.2651 10.5469ZM19.9712 15.3643C17.7204 15.3643 15.9176 17.2387 15.9175 19.5C15.9175 21.7614 17.7203 23.6357 19.9712 23.6357C22.2221 23.6357 24.0249 21.7614 24.0249 19.5C24.0248 17.2387 22.2221 15.3643 19.9712 15.3643Z" stroke="#333333" stroke-width="1.5"/>
</svg>
