<svg width="19" height="20" viewBox="0 0 19 20" fill="none" xmlns="http://www.w3.org/2000/svg">
<path fill-rule="evenodd" clip-rule="evenodd" d="M4.10811 0.5C1.83926 0.5 0 2.40101 0 4.74602V12.1766C0 14.5215 1.83926 16.4226 4.10811 16.4226H5.39189C5.9591 16.4226 6.41892 16.8978 6.41892 17.4841V18.9682C6.41892 19.4242 6.93855 19.6679 7.27058 19.3676L9.6558 17.2105C10.2175 16.7026 10.9384 16.4226 11.6847 16.4226H14.8919C17.1607 16.4226 19 14.5215 19 12.1766V4.74602C19 2.40101 17.1607 0.5 14.8919 0.5H4.10811ZM3.33784 8.19592C2.91243 8.19592 2.56757 8.55237 2.56757 8.99205C2.56757 9.43173 2.91243 9.78818 3.33784 9.78818H6.41892C6.84432 9.78818 7.18919 9.43173 7.18919 8.99205C7.18919 8.55237 6.84432 8.19592 6.41892 8.19592H3.33784ZM9.5 8.19592C9.0746 8.19592 8.72973 8.55237 8.72973 8.99205C8.72973 9.43173 9.0746 9.78818 9.5 9.78818H15.6622C16.0876 9.78818 16.4324 9.43173 16.4324 8.99205C16.4324 8.55237 16.0876 8.19592 15.6622 8.19592H9.5ZM2.56757 12.1766C2.56757 11.7369 2.91243 11.3804 3.33784 11.3804H9.5C9.92539 11.3804 10.2703 11.7369 10.2703 12.1766C10.2703 12.6162 9.92539 12.9727 9.5 12.9727H3.33784C2.91243 12.9727 2.56757 12.6162 2.56757 12.1766ZM12.5811 11.3804C12.1557 11.3804 11.8108 11.7369 11.8108 12.1766C11.8108 12.6162 12.1557 12.9727 12.5811 12.9727H15.6622C16.0876 12.9727 16.4324 12.6162 16.4324 12.1766C16.4324 11.7369 16.0876 11.3804 15.6622 11.3804H12.5811Z" fill="#999999"/>
</svg>
