<svg width="19" height="20" viewBox="0 0 19 20" fill="none" xmlns="http://www.w3.org/2000/svg">
<path fill-rule="evenodd" clip-rule="evenodd" d="M0 0.5C1.70163 0.5 3.08108 1.87945 3.08108 3.58108V16.4189C3.08108 17.1889 3.36351 17.8929 3.83043 18.4329C3.90695 18.3405 4.00021 18.2608 4.10736 18.1988C4.724 17.8421 5.13514 17.1779 5.13514 16.4189C5.13514 15.8517 5.59496 15.3919 6.16216 15.3919H15.9189V3.58108C15.9189 1.87945 14.5395 0.5 12.8378 0.5H0ZM5.64865 4.60811C5.64865 4.1827 5.99351 3.83784 6.41892 3.83784H12.5811C13.0065 3.83784 13.3514 4.1827 13.3514 4.60811C13.3514 5.03351 13.0065 5.37838 12.5811 5.37838H6.41892C5.99351 5.37838 5.64865 5.03351 5.64865 4.60811ZM5.64865 7.68919C5.64865 7.26378 5.99351 6.91892 6.41892 6.91892H12.5811C13.0065 6.91892 13.3514 7.26378 13.3514 7.68919C13.3514 8.11458 13.0065 8.45946 12.5811 8.45946H6.41892C5.99351 8.45946 5.64865 8.11458 5.64865 7.68919ZM6.41892 10C5.99351 10 5.64865 10.3449 5.64865 10.7703C5.64865 11.1957 5.99351 11.5405 6.41892 11.5405H9.5C9.92539 11.5405 10.2703 11.1957 10.2703 10.7703C10.2703 10.3449 9.92539 10 9.5 10H6.41892Z" fill="#999999"/>
<path d="M15.9189 19.499C17.6206 19.499 19 18.1196 19 16.418H6.16212C6.16212 17.5584 5.54252 18.5541 4.62158 19.0869C5.07477 19.349 5.60092 19.499 6.16212 19.499H15.9189Z" fill="#999999"/>
<path d="M0 1.52734V2.55437C0 3.12158 0.459821 3.5814 1.02703 3.5814H2.05405C2.05405 2.44697 1.13442 1.52734 0 1.52734Z" fill="#999999"/>
</svg>
